<?xml version="1.0" encoding="utf-8"?>
<!-- Generator: Adobe Illustrator 16.0.3, SVG Export Plug-In . SVG Version: 6.00 Build 0)  -->
<!DOCTYPE svg PUBLIC "-//W3C//DTD SVG 1.1//EN" "http://www.w3.org/Graphics/SVG/1.1/DTD/svg11.dtd">
<svg version="1.1" id="Calque_1" xmlns="http://www.w3.org/2000/svg" xmlns:xlink="http://www.w3.org/1999/xlink" x="0px" y="0px"
	 width="231px" height="19px" viewBox="0 0 231 19" enable-background="new 0 0 231 19" xml:space="preserve">
<g>
	<polygon fill="#FFFFFF" points="4.007,8.769 4.007,0 8.442,4.385 	"/>
	<polygon fill="#FFFFFF" points="2.797,2.797 2.797,0 0,2.797 	"/>
	<polygon fill="#FFFFFF" points="13.633,12.902 13.633,19 10.458,15.824 	"/>
	<polygon fill="#FFFFFF" points="4.359,10.281 9.45,14.816 26.584,0.706 14.691,0.706 	"/>
</g>
<g>
	<path fill="#FFFFFF" d="M46.795,15.736h-2.962l-4.685-8.051l-0.053,0.018v8.034h-2.971V2.939h2.971l4.685,8.042l0.053-0.018V2.939
		h2.962V15.736z"/>
	<path fill="#FFFFFF" d="M59.29,10.488c0,1.576-0.5,2.877-1.498,3.898c-1,1.023-2.305,1.533-3.916,1.533
		c-1.623,0-2.938-0.51-3.946-1.533c-1.008-1.021-1.512-2.322-1.512-3.898V8.186c0-1.57,0.502-2.868,1.507-3.894
		s2.316-1.538,3.934-1.538c1.605,0,2.912,0.513,3.92,1.538s1.512,2.323,1.512,3.894V10.488z M56.328,8.168
		c0-0.914-0.216-1.664-0.646-2.25C55.25,5.333,54.643,5.04,53.858,5.04c-0.803,0-1.417,0.292-1.842,0.874
		c-0.425,0.584-0.637,1.335-0.637,2.255v2.32c0,0.926,0.215,1.682,0.646,2.268c0.43,0.586,1.047,0.879,1.85,0.879
		c0.779,0,1.383-0.293,1.811-0.879s0.642-1.342,0.642-2.268V8.168z"/>
	<path fill="#FFFFFF" d="M67.52,12.344c0-0.457-0.149-0.807-0.448-1.051c-0.299-0.242-0.841-0.502-1.626-0.777
		C63.858,10,62.678,9.451,61.908,8.867c-0.771-0.582-1.155-1.422-1.155-2.518c0-1.072,0.448-1.939,1.345-2.602
		s2.036-0.993,3.419-0.993c1.459,0,2.634,0.342,3.524,1.024s1.321,1.645,1.292,2.887l-0.018,0.053h-2.883
		c0-0.604-0.164-1.041-0.492-1.314c-0.328-0.271-0.823-0.408-1.485-0.408c-0.539,0-0.964,0.132-1.274,0.396
		s-0.466,0.589-0.466,0.976c0,0.375,0.159,0.676,0.479,0.9c0.319,0.227,0.916,0.509,1.789,0.849
		c1.482,0.439,2.604,0.976,3.366,1.608c0.762,0.633,1.143,1.5,1.143,2.602c0,1.125-0.439,2.006-1.318,2.641
		c-0.879,0.637-2.045,0.953-3.498,0.953c-1.447,0-2.674-0.34-3.679-1.023c-1.005-0.682-1.492-1.756-1.463-3.221l0.018-0.053h2.892
		c0,0.744,0.183,1.273,0.55,1.586c0.365,0.314,0.927,0.471,1.683,0.471c0.621,0,1.084-0.123,1.389-0.369S67.52,12.742,67.52,12.344z
		"/>
	<path fill="#FFFFFF" d="M82.928,13.248h-3.806l-0.738,2.488h-3.129L79.43,2.939h1.591v0.009l0.009-0.009h1.591l4.184,12.797h-3.129
		L82.928,13.248z M79.808,10.963h2.435l-1.195-3.972h-0.053L79.808,10.963z"/>
	<path fill="#FFFFFF" d="M94.296,11.895h0.053l2.892-8.956h3.929v12.797h-2.971V7.492l-0.053-0.009l-2.821,8.253H93.33l-2.769-8.13
		l-0.053,0.009v8.122h-2.971V2.939h3.894L94.296,11.895z"/>
	<path fill="#FFFFFF" d="M106.175,15.736h-2.962V2.939h2.962V15.736z"/>
	<path fill="#FFFFFF" d="M114.82,12.344c0-0.457-0.149-0.807-0.448-1.051c-0.299-0.242-0.841-0.502-1.626-0.777
		c-1.588-0.516-2.768-1.065-3.538-1.649c-0.771-0.582-1.155-1.422-1.155-2.518c0-1.072,0.448-1.939,1.345-2.602
		s2.036-0.993,3.419-0.993c1.459,0,2.634,0.342,3.524,1.024c0.891,0.683,1.322,1.645,1.293,2.887l-0.018,0.053h-2.883
		c0-0.604-0.164-1.041-0.492-1.314c-0.328-0.271-0.823-0.408-1.485-0.408c-0.539,0-0.964,0.132-1.274,0.396
		s-0.466,0.589-0.466,0.976c0,0.375,0.159,0.676,0.479,0.9c0.319,0.227,0.916,0.509,1.789,0.849
		c1.482,0.439,2.604,0.976,3.367,1.608c0.762,0.633,1.143,1.5,1.143,2.602c0,1.125-0.439,2.006-1.318,2.641
		c-0.879,0.637-2.045,0.953-3.499,0.953c-1.447,0-2.674-0.34-3.679-1.023c-1.005-0.682-1.492-1.756-1.463-3.221l0.018-0.053h2.892
		c0,0.744,0.183,1.273,0.55,1.586c0.365,0.314,0.927,0.471,1.683,0.471c0.621,0,1.084-0.123,1.389-0.369
		S114.82,12.742,114.82,12.344z"/>
	<path fill="#FFFFFF" d="M126.5,13.451h5.494v2.285h-8.465V2.939h2.971V13.451z"/>
	<path fill="#FFFFFF" d="M140.885,10.26h-4.51v3.191h5.406v2.285h-8.377V2.939h8.385v2.285h-5.414v2.751h4.51V10.26z"/>
	<path fill="#FFFFFF" d="M149.871,12.344c0-0.457-0.15-0.807-0.449-1.051c-0.299-0.242-0.84-0.502-1.625-0.777
		c-1.588-0.516-2.768-1.065-3.539-1.649c-0.77-0.582-1.154-1.422-1.154-2.518c0-1.072,0.447-1.939,1.344-2.602
		s2.037-0.993,3.42-0.993c1.459,0,2.633,0.342,3.523,1.024s1.322,1.645,1.293,2.887l-0.018,0.053h-2.883
		c0-0.604-0.164-1.041-0.492-1.314c-0.328-0.271-0.824-0.408-1.486-0.408c-0.539,0-0.963,0.132-1.273,0.396
		s-0.467,0.589-0.467,0.976c0,0.375,0.16,0.676,0.479,0.9c0.32,0.227,0.916,0.509,1.789,0.849c1.482,0.439,2.605,0.976,3.367,1.608
		c0.762,0.633,1.143,1.5,1.143,2.602c0,1.125-0.439,2.006-1.318,2.641c-0.879,0.637-2.045,0.953-3.498,0.953
		c-1.447,0-2.674-0.34-3.68-1.023c-1.004-0.682-1.492-1.756-1.463-3.221l0.018-0.053h2.893c0,0.744,0.182,1.273,0.549,1.586
		c0.365,0.314,0.928,0.471,1.684,0.471c0.621,0,1.084-0.123,1.389-0.369S149.871,12.742,149.871,12.344z"/>
	<path fill="#FFFFFF" d="M169.217,10.488c0,1.576-0.5,2.877-1.498,3.898c-1,1.023-2.305,1.533-3.916,1.533
		c-1.623,0-2.939-0.51-3.947-1.533c-1.008-1.021-1.512-2.322-1.512-3.898V8.186c0-1.57,0.502-2.868,1.508-3.894
		c1.004-1.025,2.316-1.538,3.934-1.538c1.605,0,2.912,0.513,3.92,1.538s1.512,2.323,1.512,3.894V10.488z M166.254,8.168
		c0-0.914-0.215-1.664-0.645-2.25c-0.432-0.586-1.039-0.879-1.824-0.879c-0.803,0-1.418,0.292-1.842,0.874
		c-0.426,0.584-0.637,1.335-0.637,2.255v2.32c0,0.926,0.215,1.682,0.646,2.268c0.43,0.586,1.047,0.879,1.85,0.879
		c0.779,0,1.383-0.293,1.811-0.879s0.641-1.342,0.641-2.268V8.168z"/>
	<path fill="#FFFFFF" d="M173.994,15.736h-2.963V2.939h2.963V15.736z"/>
	<path fill="#FFFFFF" d="M182.637,12.344c0-0.457-0.148-0.807-0.447-1.051c-0.299-0.242-0.842-0.502-1.627-0.777
		c-1.588-0.516-2.768-1.065-3.537-1.649c-0.771-0.582-1.156-1.422-1.156-2.518c0-1.072,0.449-1.939,1.346-2.602
		s2.035-0.993,3.418-0.993c1.459,0,2.635,0.342,3.525,1.024s1.32,1.645,1.291,2.887l-0.018,0.053h-2.883
		c0-0.604-0.164-1.041-0.492-1.314c-0.328-0.271-0.822-0.408-1.484-0.408c-0.539,0-0.965,0.132-1.275,0.396
		s-0.465,0.589-0.465,0.976c0,0.375,0.158,0.676,0.479,0.9c0.318,0.227,0.916,0.509,1.789,0.849
		c1.482,0.439,2.604,0.976,3.365,1.608c0.762,0.633,1.143,1.5,1.143,2.602c0,1.125-0.439,2.006-1.318,2.641
		c-0.879,0.637-2.045,0.953-3.498,0.953c-1.447,0-2.674-0.34-3.678-1.023c-1.006-0.682-1.492-1.756-1.463-3.221l0.018-0.053h2.891
		c0,0.744,0.184,1.273,0.551,1.586c0.365,0.314,0.926,0.471,1.682,0.471c0.621,0,1.084-0.123,1.389-0.369
		S182.637,12.742,182.637,12.344z"/>
	<path fill="#FFFFFF" d="M194.525,10.26h-4.51v3.191h5.406v2.285h-8.377V2.939h8.385v2.285h-5.414v2.751h4.51V10.26z"/>
	<path fill="#FFFFFF" d="M203.609,13.248h-3.807l-0.738,2.488h-3.129l4.176-12.797h1.59v0.009l0.01-0.009h1.59l4.184,12.797h-3.129
		L203.609,13.248z M200.488,10.963h2.436l-1.195-3.972h-0.053L200.488,10.963z"/>
	<path fill="#FFFFFF" d="M218.555,2.939v8.297c0,1.465-0.486,2.611-1.459,3.441c-0.973,0.828-2.242,1.242-3.807,1.242
		c-1.576,0-2.854-0.414-3.832-1.242c-0.979-0.83-1.467-1.977-1.467-3.441V2.939h2.979v8.297c0,0.791,0.205,1.389,0.615,1.793
		s0.979,0.605,1.705,0.605c0.721,0,1.281-0.199,1.684-0.602c0.4-0.4,0.602-1,0.602-1.797V2.939H218.555z"/>
	<path fill="#FFFFFF" d="M225.02,7.254l2.109-4.315h3.428l-3.666,6.346l3.947,6.452h-3.604l-2.18-4.404l-2.18,4.404h-3.428
		l3.762-6.452l-3.666-6.346h3.402L225.02,7.254z"/>
</g>
</svg>
