<?xml version="1.0" encoding="utf-8"?>
<!-- Generator: Adobe Illustrator 16.0.3, SVG Export Plug-In . SVG Version: 6.00 Build 0)  -->
<!DOCTYPE svg PUBLIC "-//W3C//DTD SVG 1.1//EN" "http://www.w3.org/Graphics/SVG/1.1/DTD/svg11.dtd">
<svg version="1.1" id="Calque_1" xmlns="http://www.w3.org/2000/svg" xmlns:xlink="http://www.w3.org/1999/xlink" x="0px" y="0px"
	 width="182px" height="89px" viewBox="0 0 182 89" enable-background="new 0 0 182 89" xml:space="preserve">
<g>
	<linearGradient id="SVGID_1_" gradientUnits="userSpaceOnUse" x1="11.4321" y1="9.4624" x2="30.5765" y2="28.6068">
		<stop  offset="0" style="stop-color:#E4D075"/>
		<stop  offset="0.3192" style="stop-color:#E1CD72"/>
		<stop  offset="0.5755" style="stop-color:#D9C568"/>
		<stop  offset="0.8092" style="stop-color:#CBB657"/>
		<stop  offset="1" style="stop-color:#BBA543"/>
	</linearGradient>
	<polygon fill="url(#SVGID_1_)" points="20.895,38.071 20.895,0 40.149,19.034 	"/>
	<linearGradient id="SVGID_2_" gradientUnits="userSpaceOnUse" x1="3.5" y1="6.0718" x2="15.6426" y2="6.0718">
		<stop  offset="0" style="stop-color:#FFFFFF"/>
		<stop  offset="0.3219" style="stop-color:#FCFCFC"/>
		<stop  offset="0.5804" style="stop-color:#F2F2F2"/>
		<stop  offset="0.8161" style="stop-color:#E1E1E1"/>
		<stop  offset="1" style="stop-color:#CECECE"/>
	</linearGradient>
	<polygon fill="url(#SVGID_2_)" points="15.643,12.144 15.643,0 3.5,12.144 	"/>
	<linearGradient id="SVGID_3_" gradientUnits="userSpaceOnUse" x1="55.7935" y1="82.4863" x2="55.7935" y2="56.0107">
		<stop  offset="0" style="stop-color:#E4D075"/>
		<stop  offset="0.3192" style="stop-color:#E1CD72"/>
		<stop  offset="0.5755" style="stop-color:#D9C568"/>
		<stop  offset="0.8092" style="stop-color:#CBB657"/>
		<stop  offset="1" style="stop-color:#BBA543"/>
	</linearGradient>
	<polygon fill="url(#SVGID_3_)" points="62.685,56.011 62.685,82.486 48.901,68.699 	"/>
	<linearGradient id="SVGID_4_" gradientUnits="userSpaceOnUse" x1="91.7334" y1="-12.6309" x2="46.6071" y2="65.5303">
		<stop  offset="0" style="stop-color:#8DD4E7"/>
		<stop  offset="0.2654" style="stop-color:#8AD2E5"/>
		<stop  offset="0.4786" style="stop-color:#80CADE"/>
		<stop  offset="0.6735" style="stop-color:#6FBDD3"/>
		<stop  offset="0.8566" style="stop-color:#57ABC3"/>
		<stop  offset="1" style="stop-color:#3F99B2"/>
	</linearGradient>
	<polygon fill="url(#SVGID_4_)" points="22.426,44.633 44.523,64.327 118.916,3.063 67.278,3.063 	"/>
</g>
<g>
	<path fill="#FFFFFF" d="M79.387,69.474h-3.128l-4.948-8.503l-0.056,0.019v8.484h-3.138V55.958h3.138l4.948,8.493l0.056-0.019
		v-8.475h3.128V69.474z"/>
	<path fill="#FFFFFF" d="M92.299,63.932c0,1.665-0.53,3.037-1.584,4.117s-2.434,1.62-4.135,1.62c-1.714,0-3.104-0.54-4.168-1.62
		s-1.597-2.452-1.597-4.117V61.5c0-1.659,0.531-3.029,1.592-4.112c1.062-1.083,2.446-1.625,4.154-1.625
		c1.696,0,3.076,0.542,4.14,1.625s1.598,2.453,1.598,4.112V63.932z M89.169,61.481c0-0.966-0.228-1.758-0.683-2.377
		c-0.455-0.618-1.097-0.928-1.926-0.928c-0.848,0-1.496,0.308-1.945,0.923c-0.449,0.616-0.673,1.41-0.673,2.382v2.45
		c0,0.978,0.228,1.776,0.682,2.396c0.455,0.618,1.106,0.928,1.954,0.928c0.823,0,1.46-0.31,1.912-0.928
		c0.452-0.619,0.678-1.418,0.678-2.396V61.481z"/>
	<path fill="#FFFFFF" d="M100.705,65.891c0-0.482-0.156-0.853-0.473-1.109s-0.889-0.53-1.717-0.821
		c-1.678-0.545-2.924-1.125-3.736-1.741c-0.814-0.615-1.221-1.502-1.221-2.659c0-1.133,0.473-2.049,1.42-2.748
		s2.15-1.049,3.611-1.049c1.541,0,2.781,0.36,3.723,1.082c0.939,0.721,1.395,1.737,1.363,3.049l-0.018,0.056h-3.045
		c0-0.637-0.174-1.1-0.52-1.388c-0.348-0.288-0.869-0.432-1.568-0.432c-0.57,0-1.02,0.14-1.348,0.418s-0.492,0.622-0.492,1.03
		c0,0.396,0.17,0.713,0.508,0.951c0.336,0.238,0.967,0.537,1.889,0.896c1.564,0.464,2.75,1.03,3.555,1.698
		c0.805,0.669,1.207,1.584,1.207,2.748c0,1.188-0.465,2.118-1.393,2.789c-0.928,0.672-2.16,1.008-3.695,1.008
		c-1.527,0-2.822-0.36-3.885-1.082c-1.061-0.721-1.576-1.854-1.545-3.402l0.018-0.056h3.055c0,0.786,0.193,1.345,0.58,1.676
		s0.98,0.497,1.777,0.497c0.656,0,1.146-0.13,1.467-0.391C100.545,66.651,100.705,66.312,100.705,65.891z"/>
	<path fill="#FFFFFF" d="M116.408,66.847h-4.02l-0.779,2.627h-3.305l4.41-13.516h1.68v0.009l0.01-0.009h1.68l4.418,13.516h-3.305
		L116.408,66.847z M113.113,64.433h2.572l-1.264-4.195h-0.055L113.113,64.433z"/>
	<path fill="#FFFFFF" d="M128.131,65.417h0.057l3.053-9.459h4.15v13.516h-3.139v-8.707l-0.055-0.01l-2.98,8.717h-2.107l-2.924-8.587
		l-0.055,0.01v8.577h-3.139V55.958h4.113L128.131,65.417z"/>
	<path fill="#FFFFFF" d="M140.393,69.474h-3.129V55.958h3.129V69.474z"/>
	<path fill="#FFFFFF" d="M149.236,65.891c0-0.482-0.158-0.853-0.473-1.109c-0.316-0.257-0.889-0.53-1.719-0.821
		c-1.676-0.545-2.922-1.125-3.736-1.741c-0.813-0.615-1.221-1.502-1.221-2.659c0-1.133,0.475-2.049,1.42-2.748
		c0.947-0.699,2.15-1.049,3.611-1.049c1.541,0,2.783,0.36,3.723,1.082c0.941,0.721,1.396,1.737,1.365,3.049l-0.02,0.056h-3.045
		c0-0.637-0.172-1.1-0.52-1.388c-0.346-0.288-0.869-0.432-1.568-0.432c-0.57,0-1.018,0.14-1.346,0.418s-0.492,0.622-0.492,1.03
		c0,0.396,0.168,0.713,0.506,0.951s0.967,0.537,1.889,0.896c1.566,0.464,2.752,1.03,3.557,1.698
		c0.803,0.669,1.205,1.584,1.205,2.748c0,1.188-0.463,2.118-1.393,2.789c-0.928,0.672-2.158,1.008-3.693,1.008
		c-1.529,0-2.824-0.36-3.885-1.082c-1.063-0.721-1.576-1.854-1.547-3.402l0.02-0.056h3.055c0,0.786,0.193,1.345,0.58,1.676
		s0.979,0.497,1.777,0.497c0.656,0,1.145-0.13,1.467-0.391C149.076,66.651,149.236,66.312,149.236,65.891z"/>
	<path fill="#FFFFFF" d="M71.255,86.072h5.802v2.413h-8.939V74.97h3.138V86.072z"/>
	<path fill="#FFFFFF" d="M86.162,82.702h-4.762v3.37h5.709v2.413h-8.847V74.97h8.856v2.413h-5.718v2.906h4.762V82.702z"/>
	<path fill="#FFFFFF" d="M95.367,84.902c0-0.482-0.156-0.853-0.473-1.109s-0.889-0.53-1.717-0.821
		c-1.677-0.545-2.923-1.125-3.737-1.741c-0.814-0.615-1.221-1.502-1.221-2.659c0-1.133,0.474-2.049,1.42-2.748
		c0.947-0.699,2.15-1.049,3.612-1.049c1.541,0,2.781,0.36,3.723,1.082c0.939,0.721,1.395,1.737,1.363,3.049l-0.018,0.056h-3.045
		c0-0.637-0.174-1.1-0.52-1.388c-0.348-0.288-0.869-0.432-1.568-0.432c-0.57,0-1.02,0.14-1.347,0.418
		c-0.328,0.278-0.492,0.622-0.492,1.03c0,0.396,0.169,0.713,0.507,0.951c0.336,0.238,0.967,0.537,1.889,0.896
		c1.564,0.464,2.75,1.03,3.555,1.698c0.805,0.669,1.207,1.584,1.207,2.748c0,1.188-0.465,2.118-1.393,2.789
		c-0.928,0.672-2.16,1.008-3.695,1.008c-1.528,0-2.823-0.36-3.884-1.082c-1.062-0.721-1.577-1.854-1.545-3.402l0.019-0.056h3.054
		c0,0.786,0.193,1.345,0.58,1.676c0.386,0.331,0.98,0.497,1.777,0.497c0.656,0,1.146-0.13,1.467-0.391
		C95.207,85.663,95.367,85.323,95.367,84.902z"/>
	<path fill="#FFFFFF" d="M115.23,82.943c0,1.665-0.529,3.037-1.584,4.117s-2.434,1.62-4.135,1.62c-1.715,0-3.104-0.54-4.168-1.62
		s-1.598-2.452-1.598-4.117v-2.432c0-1.659,0.531-3.029,1.592-4.112c1.063-1.083,2.447-1.625,4.154-1.625
		c1.695,0,3.076,0.542,4.141,1.625s1.598,2.453,1.598,4.112V82.943z M112.102,80.493c0-0.966-0.229-1.758-0.684-2.377
		c-0.453-0.618-1.096-0.928-1.926-0.928c-0.848,0-1.496,0.308-1.943,0.923c-0.449,0.616-0.674,1.41-0.674,2.382v2.45
		c0,0.978,0.227,1.776,0.682,2.396c0.455,0.618,1.107,0.928,1.955,0.928c0.822,0,1.461-0.31,1.912-0.928
		c0.451-0.619,0.678-1.418,0.678-2.396V80.493z"/>
	<path fill="#FFFFFF" d="M119.99,88.485h-3.129V74.97h3.129V88.485z"/>
	<path fill="#FFFFFF" d="M128.834,84.902c0-0.482-0.156-0.853-0.473-1.109s-0.889-0.53-1.717-0.821
		c-1.678-0.545-2.924-1.125-3.736-1.741c-0.814-0.615-1.221-1.502-1.221-2.659c0-1.133,0.473-2.049,1.42-2.748
		s2.15-1.049,3.611-1.049c1.541,0,2.781,0.36,3.723,1.082c0.939,0.721,1.395,1.737,1.363,3.049l-0.018,0.056h-3.045
		c0-0.637-0.174-1.1-0.52-1.388c-0.348-0.288-0.869-0.432-1.568-0.432c-0.57,0-1.02,0.14-1.348,0.418s-0.492,0.622-0.492,1.03
		c0,0.396,0.17,0.713,0.508,0.951c0.336,0.238,0.967,0.537,1.889,0.896c1.564,0.464,2.75,1.03,3.555,1.698
		c0.805,0.669,1.207,1.584,1.207,2.748c0,1.188-0.465,2.118-1.393,2.789c-0.928,0.672-2.16,1.008-3.695,1.008
		c-1.527,0-2.822-0.36-3.885-1.082c-1.061-0.721-1.576-1.854-1.545-3.402l0.018-0.056h3.055c0,0.786,0.193,1.345,0.58,1.676
		s0.98,0.497,1.777,0.497c0.656,0,1.146-0.13,1.467-0.391C128.674,85.663,128.834,85.323,128.834,84.902z"/>
	<path fill="#FFFFFF" d="M141.105,82.702h-4.762v3.37h5.709v2.413h-8.848V74.97h8.855v2.413h-5.717v2.906h4.762V82.702z"/>
	<path fill="#FFFFFF" d="M150.414,85.858h-4.02l-0.779,2.627h-3.305l4.408-13.516h1.68v0.009l0.01-0.009h1.68l4.42,13.516h-3.305
		L150.414,85.858z M147.117,83.444h2.572l-1.262-4.195h-0.057L147.117,83.444z"/>
	<path fill="#FFFFFF" d="M165.914,74.97v8.763c0,1.547-0.514,2.759-1.541,3.635c-1.027,0.875-2.367,1.313-4.02,1.313
		c-1.664,0-3.014-0.438-4.047-1.313c-1.033-0.876-1.551-2.088-1.551-3.635V74.97h3.148v8.763c0,0.836,0.215,1.467,0.648,1.894
		c0.434,0.428,1.033,0.641,1.801,0.641c0.762,0,1.354-0.212,1.777-0.636s0.637-1.057,0.637-1.898V74.97H165.914z"/>
	<path fill="#FFFFFF" d="M172.457,79.527l2.229-4.558h3.619l-3.871,6.702l4.168,6.813h-3.805l-2.303-4.65l-2.303,4.65h-3.619
		l3.973-6.813l-3.871-6.702h3.592L172.457,79.527z"/>
</g>
</svg>
